# xmcd CD database file
#
# Track frame offsets:
#	150
#	23470
#	41034
#	59776
#	82884
#	105746
#	131072
#	152817
#	171238
#	191555
#	209751
#
# Disc length: 3045 seconds
#
# Revision: 1
# Processed by: cddbd v1.5.2PL0 Copyright (c) Steve Scherf et al.
# Submitted via: CDex 1.70beta2
#
DISCID=9a0be30b
DTITLE=Soma - Essence of life"smile"
DYEAR=1900
DGENRE=J-POP
TTITLE0=ラブリー
TTITLE1=風をあつめて
TTITLE2=晴れたらいいね
TTITLE3=リンダリンダ
TTITLE4=星のラブレター
TTITLE5=バンザイ～好きでよかった～
TTITLE6=世界でいちばん頑張ってる君に
TTITLE7=森花処女林
TTITLE8=ばらの花
TTITLE9=DOWN TOWN
TTITLE10=歩いて帰ろう
EXTD=
EXTT0=
EXTT1=
EXTT2=
EXTT3=
EXTT4=
EXTT5=
EXTT6=
EXTT7=
EXTT8=
EXTT9=
EXTT10=
PLAYORDER=
